<svg xmlns="http://www.w3.org/2000/svg" width="29" height="29" viewBox="0 0 29 29">
  <g id="Group_19" data-name="Group 19" transform="translate(-1708 -301)">
    <rect id="Rectangle_10" data-name="Rectangle 10" width="29" height="29" rx="6" transform="translate(1708 301)" fill="#ffdede"/>
    <path id="delete-2-svgrepo-com_1_" data-name="delete-2-svgrepo-com (1)" d="M6,7V18a2,2,0,0,0,2,2h8a2,2,0,0,0,2-2V7M6,7H5M6,7H8M18,7h1M18,7H16m-6,4v5m4-5v5M8,7V5a2,2,0,0,1,2-2h4a2,2,0,0,1,2,2V7M8,7h8" transform="translate(1710 304)" fill="none" stroke="#eb1616" stroke-linecap="round" stroke-linejoin="round" stroke-width="1.5"/>
  </g>
</svg>
